<svg width="152" height="24" viewBox="0 0 152 24" fill="none" xmlns="http://www.w3.org/2000/svg">
<path fill-rule="evenodd" clip-rule="evenodd" d="M29.9312 8.78975L35.1419 5.40917V19.9255L29.9312 16.2968V8.78975ZM19.1684 14.6516C18.7052 15.8457 17.8392 16.8403 16.7201 17.4632C15.601 18.0861 14.2993 18.2981 13.0404 18.0625C11.7815 17.827 10.6446 17.1586 9.82645 16.1732C9.00833 15.1878 8.5605 13.9473 8.5605 12.6666C8.5605 11.3858 9.00833 10.1453 9.82645 9.1599C10.6446 8.17448 11.7815 7.50614 13.0404 7.27056C14.2993 7.03498 15.601 7.24699 16.7201 7.8699C17.8392 8.49282 18.7052 9.48741 19.1684 10.6815H24.1618V7.24169C24.158 6.71638 23.9477 6.21366 23.5762 5.84219C23.2048 5.47073 22.7021 5.26039 22.1767 5.25667H5.89346C5.36815 5.26039 4.86542 5.47073 4.49396 5.84219C4.1225 6.21366 3.91216 6.71638 3.90844 7.24169V18.0677C3.91216 18.593 4.1225 19.0957 4.49396 19.4672C4.86542 19.8387 5.36815 20.049 5.89346 20.0527H22.1775C22.7028 20.049 23.2056 19.8387 23.577 19.4672C23.9485 19.0957 24.1588 18.593 24.1626 18.0677V16.424H28.1318V18.1918C28.1289 19.7292 27.5169 21.2028 26.4297 22.2899C25.3426 23.377 23.869 23.989 22.3316 23.992H5.80023C4.26282 23.989 2.7892 23.377 1.70208 22.2899C0.614961 21.2028 0.00292404 19.7292 0 18.1918V7.11526C0.00292404 5.57784 0.614961 4.10424 1.70208 3.01713C2.7892 1.93001 4.26282 1.31797 5.80023 1.31505H22.3324C23.8698 1.31797 25.3434 1.93001 26.4305 3.01713C27.5177 4.10424 28.1297 5.57784 28.1326 7.11526V14.6223L19.1684 14.6532V14.6516ZM16.4389 12.1703L13.2781 10.3402C13.1921 10.2942 13.0962 10.2702 12.9987 10.2702C12.9013 10.2702 12.8053 10.2942 12.7194 10.3402C12.6302 10.3874 12.5565 10.4593 12.507 10.5473C12.4576 10.6353 12.4344 10.7357 12.4404 10.8364V14.4967C12.4344 14.5975 12.4576 14.6978 12.507 14.7858C12.5565 14.8738 12.6302 14.9457 12.7194 14.993C12.8053 15.0389 12.9013 15.0629 12.9987 15.0629C13.0962 15.0629 13.1921 15.0389 13.2781 14.993L16.4389 13.1628C16.5241 13.111 16.5946 13.0381 16.6434 12.9512C16.6923 12.8643 16.718 12.7663 16.718 12.6666C16.718 12.5669 16.6923 12.4688 16.6434 12.3819C16.5946 12.295 16.5241 12.2221 16.4389 12.1703Z" fill="#008DFF"/>
<path fill-rule="evenodd" clip-rule="evenodd" d="M131.264 20.0496H134.955L125.092 6.30923H121.401L126.239 13.0403L118.392 23.958H122.083L128.069 15.5817L131.264 20.0496Z" fill="#008DFF"/>
<path fill-rule="evenodd" clip-rule="evenodd" d="M72.7658 14.7456L72.6725 14.4667H83.4677C83.5036 14.2824 83.5242 14.0956 83.5294 13.908C83.555 13.6718 83.5653 13.4343 83.5602 13.1968C83.5602 9.13348 80.7375 5.9078 76.6126 5.9078C75.6452 5.87001 74.6806 6.03269 73.7791 6.38563C72.8777 6.73856 72.059 7.27411 71.3744 7.95864C70.6899 8.64317 70.1543 9.46188 69.8014 10.3633C69.4485 11.2648 69.2858 12.2295 69.3236 13.1968C69.3236 17.6939 72.5801 20.4858 76.8915 20.4858C78.0217 20.5536 79.1508 20.3363 80.1752 19.854C81.1996 19.3717 82.0864 18.6398 82.7542 17.7255L80.1796 16.2367C79.7797 16.6929 79.2816 17.0526 78.7229 17.2888C78.1641 17.525 77.559 17.6316 76.9532 17.6007C74.9681 17.5675 73.3529 16.8231 72.7658 14.7456ZM80.1789 12.0778H72.6717C73.168 9.9063 74.4395 8.75891 76.6726 8.75891C78.8126 8.75891 80.0224 10.0304 80.457 12.0778H80.1789Z" fill="#FAFAFA"/>
<path fill-rule="evenodd" clip-rule="evenodd" d="M43.982 14.7456L43.8888 14.4667H54.684C54.7201 14.2825 54.741 14.0956 54.7464 13.908C54.7721 13.6718 54.7824 13.4343 54.7772 13.1968C54.7772 9.13348 51.9546 5.90781 47.8296 5.90781C46.1443 5.91384 44.5128 6.50168 43.2109 7.57193C41.909 8.64217 41.0167 10.1291 40.6848 11.7814C40.3529 13.4338 40.6017 15.15 41.3892 16.64C42.1768 18.13 43.4547 19.3023 45.0069 19.9587C46.0014 20.317 47.0516 20.4955 48.1086 20.4858C49.2392 20.5536 50.3688 20.3361 51.3935 19.8534C52.4182 19.3707 53.3051 18.6382 53.9728 17.7232L51.3983 16.2344C50.9983 16.6913 50.4999 17.0516 49.9407 17.2883C49.3815 17.5249 48.7759 17.6317 48.1694 17.6007C46.1536 17.5699 44.5407 16.8255 43.9812 14.7472L43.982 14.7456ZM51.3643 12.0778H43.8572C44.3534 9.9063 45.6249 8.75892 47.8581 8.75892C49.998 8.75892 51.2078 10.0304 51.6424 12.0778H51.3643Z" fill="#FAFAFA"/>
<path fill-rule="evenodd" clip-rule="evenodd" d="M105.398 9.38002H108.375V6.30924H105.181V2.4008L101.955 3.36251V6.27842H99.4712V9.3492H101.952V15.4908C101.93 16.3028 102.056 17.1122 102.325 17.8788C102.531 18.4718 102.909 18.99 103.41 19.3676C104.372 20.0788 106.018 20.2985 108.373 20.0503V17.1661C107.627 17.2495 106.872 17.2076 106.14 17.042C105.827 16.9308 105.562 16.7166 105.387 16.4348C105.213 16.1529 105.139 15.8201 105.178 15.4908V9.3492H105.395L105.398 9.38002Z" fill="#FAFAFA"/>
<path fill-rule="evenodd" clip-rule="evenodd" d="M93.1479 5.90544C92.3699 5.84562 91.5897 5.98844 90.8834 6.31999C90.1771 6.65154 89.5688 7.1605 89.1178 7.79721L88.7148 8.38672V6.27762H85.4828V20.018H88.7084V12.5741C88.7084 10.465 89.7357 8.82135 92.0582 8.82135C94.0124 8.82135 95.0982 10.062 95.0982 11.9538V19.9871H98.3239V11.4883C98.3362 10.677 98.2103 9.86943 97.9517 9.1003C97.584 8.13342 96.9232 7.30565 96.0619 6.7328C95.2006 6.15995 94.1817 5.87068 93.1479 5.90544Z" fill="#FAFAFA"/>
<path fill-rule="evenodd" clip-rule="evenodd" d="M69.5093 6.30923H65.9422L62.3444 16.6998L58.7465 6.30923H55.1794L60.421 20.0496H64.2978L69.5093 6.30923Z" fill="#FAFAFA"/>
<path fill-rule="evenodd" clip-rule="evenodd" d="M113.677 10.7748C113.519 10.5944 113.431 10.3634 113.429 10.1236C113.433 9.91728 113.488 9.71506 113.587 9.53413C113.69 9.35327 113.84 9.20348 114.022 9.10032C114.202 8.97654 114.401 8.88237 114.611 8.82137C114.843 8.75813 115.082 8.72675 115.322 8.72812C115.847 8.71378 116.365 8.85392 116.811 9.13113C117.184 9.36501 117.485 9.69793 117.68 10.0928L120.41 8.60404C120.166 8.23389 119.896 7.88138 119.603 7.5491C119.234 7.20545 118.828 6.90384 118.393 6.64983C117.934 6.39994 117.444 6.21207 116.935 6.09115C116.407 5.96444 115.865 5.90183 115.322 5.90466C114.63 5.89735 113.94 5.99132 113.275 6.18361C112.669 6.37236 112.102 6.66664 111.6 7.05285C111.121 7.40128 110.746 7.87289 110.514 8.41755C110.257 8.98192 110.129 9.59682 110.142 10.2169C110.138 10.6275 110.2 11.0361 110.327 11.4267C110.434 11.7807 110.613 12.1083 110.854 12.3884C111.084 12.6757 111.356 12.9267 111.661 13.1328C111.96 13.3449 112.283 13.5217 112.623 13.6599C112.964 13.8114 113.317 13.9358 113.678 14.0321C114.05 14.1561 114.389 14.2494 114.733 14.3418C115.082 14.4223 115.425 14.526 115.76 14.6524C116.071 14.7765 116.35 14.8697 116.629 14.9938C116.879 15.0968 117.102 15.2561 117.28 15.4592C117.438 15.6395 117.526 15.8706 117.529 16.1104C117.542 16.3327 117.494 16.5544 117.39 16.7514C117.286 16.9484 117.13 17.1129 116.939 17.2269C116.451 17.4762 115.906 17.5938 115.359 17.5683C114.692 17.6017 114.031 17.4284 113.467 17.072C113.017 16.7696 112.671 16.3366 112.474 15.8314L109.707 17.3818C110.854 19.6458 112.933 20.4526 115.383 20.4526C116.116 20.4617 116.847 20.3678 117.555 20.1737C118.187 19.9965 118.785 19.7132 119.322 19.336C119.817 19.0014 120.213 18.5409 120.47 18.0021C120.727 17.4269 120.854 16.802 120.842 16.172C120.846 15.7411 120.783 15.3123 120.656 14.9005C120.544 14.5291 120.365 14.181 120.129 13.8732C119.9 13.5765 119.628 13.3153 119.322 13.098C119.041 12.8749 118.727 12.697 118.391 12.571C118.05 12.4469 117.68 12.3228 117.337 12.1988C116.964 12.0747 116.625 11.9814 116.282 11.8882C115.64 11.7385 115.016 11.5202 114.421 11.2371C114.133 11.1575 113.874 10.9957 113.676 10.7716L113.677 10.7748Z" fill="#FAFAFA"/>
<path fill-rule="evenodd" clip-rule="evenodd" d="M130.83 11.7372L137.529 2.4008H133.869L128.999 9.19669L130.83 11.7372Z" fill="#008DFF"/>
<path d="M151.328 5.93467C151.328 8.98965 148.851 11.4662 145.796 11.4662C142.741 11.4662 140.265 8.98965 140.265 5.93467C140.265 2.87969 142.741 0.403136 145.796 0.403136C148.851 0.403136 151.328 2.87969 151.328 5.93467Z" stroke="#F3F7FA" stroke-width="0.790219"/>
<path d="M145.796 11.4662C148.851 11.4662 151.328 8.98966 151.328 5.93467C151.328 2.87969 148.851 0.403137 145.796 0.403137C142.741 0.403137 140.265 2.87969 140.265 5.93467C140.265 8.98966 142.741 11.4662 145.796 11.4662Z" stroke="#F3F7FA" stroke-width="0.790219"/>
<path d="M143.647 2.15608H146.302C146.839 2.15608 147.258 2.28778 147.558 2.55119C147.864 2.8146 148.017 3.17546 148.017 3.63379C148.017 3.97622 147.938 4.2765 147.78 4.53464C147.627 4.79278 147.379 4.96926 147.037 5.06409V5.07989C147.2 5.1115 147.332 5.16418 147.432 5.23794C147.537 5.31169 147.619 5.40125 147.677 5.50661C147.74 5.60671 147.785 5.71997 147.811 5.84641C147.843 5.97284 147.867 6.10454 147.882 6.24152C147.893 6.37849 147.901 6.51809 147.906 6.66033C147.911 6.80257 147.925 6.94218 147.946 7.07915C147.967 7.21612 147.996 7.34782 148.033 7.47426C148.075 7.59543 148.135 7.70342 148.214 7.79825H147.377C147.324 7.7403 147.287 7.66128 147.266 7.56118C147.25 7.46109 147.24 7.35046 147.234 7.22929C147.229 7.10286 147.224 6.96852 147.219 6.82628C147.213 6.68404 147.198 6.54443 147.171 6.40746C147.15 6.27049 147.124 6.14142 147.092 6.02025C147.061 5.89382 147.011 5.78582 146.942 5.69626C146.874 5.60144 146.784 5.52768 146.673 5.475C146.563 5.41705 146.415 5.38808 146.231 5.38808H144.398V7.79825H143.647V2.15608ZM145.962 4.7559C146.136 4.7559 146.302 4.74273 146.46 4.71639C146.618 4.69005 146.755 4.64 146.871 4.56625C146.992 4.48723 147.087 4.3845 147.155 4.25807C147.229 4.12636 147.266 3.95778 147.266 3.75232C147.266 3.46785 147.187 3.23605 147.029 3.05693C146.871 2.87782 146.615 2.78826 146.263 2.78826H144.398V4.7559H145.962Z" fill="#FAFAFA"/>
</svg>
