<svg width="24" height="18" viewBox="0 0 24 18" fill="none" xmlns="http://www.w3.org/2000/svg">
<path d="M20.3303 1.72059C18.7767 1.03769 17.1155 0.541367 15.3789 0.258789C15.1656 0.621069 14.9164 1.10833 14.7446 1.49597C12.8985 1.23513 11.0693 1.23513 9.25713 1.49597C9.08542 1.10833 8.83047 0.621069 8.61535 0.258789C6.87677 0.541367 5.21375 1.0395 3.6602 1.72421C0.526649 6.17293 -0.322809 10.5113 0.101915 14.788C2.18025 16.2462 4.19441 17.1319 6.17455 17.7115C6.66349 17.0794 7.09953 16.4074 7.47524 15.6991C6.75971 15.4437 6.07451 15.1285 5.42706 14.7625C5.59888 14.6431 5.76687 14.5181 5.9292 14.3894C9.87829 16.1248 14.1688 16.1248 18.0708 14.3894C18.235 14.5181 18.403 14.6431 18.5728 14.7625C17.9235 15.1303 17.2364 15.4454 16.5209 15.7009C16.8965 16.4074 17.3307 17.0812 17.8215 17.7133C19.8036 17.1337 21.8196 16.2479 23.898 14.788C24.3963 9.83021 23.0467 5.5317 20.3303 1.72059ZM8.01317 12.1579C6.82767 12.1579 5.85557 11.118 5.85557 9.85192C5.85557 8.58581 6.80695 7.54421 8.01317 7.54421C9.21938 7.54421 10.1915 8.58395 10.1708 9.85192C10.1727 11.118 9.21938 12.1579 8.01317 12.1579ZM15.9867 12.1579C14.8012 12.1579 13.8291 11.118 13.8291 9.85192C13.8291 8.58581 14.7805 7.54421 15.9867 7.54421C17.1929 7.54421 18.1652 8.58395 18.1443 9.85192C18.1443 11.118 17.1929 12.1579 15.9867 12.1579Z" fill="#5865F2"/>
</svg>
