<svg width="24" height="25" viewBox="0 0 24 25" fill="none" xmlns="http://www.w3.org/2000/svg">
<path d="M12 23.4863C17.799 23.4863 22.5 18.7853 22.5 12.9863C22.5 7.18734 17.799 2.48633 12 2.48633C6.20101 2.48633 1.5 7.18734 1.5 12.9863C1.5 18.7853 6.20101 23.4863 12 23.4863Z" fill="url(#paint0_linear_478_658)"/>
<path d="M15.9103 16.1975L16.3767 13.2339H13.4589V11.3116C13.4589 10.5006 13.8658 9.70965 15.1726 9.70965H16.5V7.18657C16.5 7.18657 15.2959 6.98633 14.1452 6.98633C11.7411 6.98633 10.1713 8.40603 10.1713 10.9751V13.2339H7.5V16.1975H10.1713V23.3622C10.7075 23.4443 11.2562 23.4863 11.8151 23.4863C12.374 23.4863 12.9226 23.4443 13.4589 23.3622V16.1975H15.9103Z" fill="white"/>
<defs>
<linearGradient id="paint0_linear_478_658" x1="12" y1="2.48633" x2="12" y2="23.4241" gradientUnits="userSpaceOnUse">
<stop stop-color="#18ACFE"/>
<stop offset="1" stop-color="#0163E0"/>
</linearGradient>
</defs>
</svg>
