<svg width="24" height="25" viewBox="0 0 24 25" fill="none" xmlns="http://www.w3.org/2000/svg">
<path d="M18 2.48633H6C3.51472 2.48633 1.5 4.50105 1.5 6.98633V18.9863C1.5 21.4716 3.51472 23.4863 6 23.4863H18C20.4853 23.4863 22.5 21.4716 22.5 18.9863V6.98633C22.5 4.50105 20.4853 2.48633 18 2.48633Z" fill="url(#paint0_radial_478_661)"/>
<path d="M18 2.48633H6C3.51472 2.48633 1.5 4.50105 1.5 6.98633V18.9863C1.5 21.4716 3.51472 23.4863 6 23.4863H18C20.4853 23.4863 22.5 21.4716 22.5 18.9863V6.98633C22.5 4.50105 20.4853 2.48633 18 2.48633Z" fill="url(#paint1_radial_478_661)"/>
<path d="M18 2.48633H6C3.51472 2.48633 1.5 4.50105 1.5 6.98633V18.9863C1.5 21.4716 3.51472 23.4863 6 23.4863H18C20.4853 23.4863 22.5 21.4716 22.5 18.9863V6.98633C22.5 4.50105 20.4853 2.48633 18 2.48633Z" fill="url(#paint2_radial_478_661)"/>
<path d="M17.25 8.86133C17.25 9.48263 16.7463 9.98633 16.125 9.98633C15.5037 9.98633 15 9.48263 15 8.86133C15 8.24001 15.5037 7.73633 16.125 7.73633C16.7463 7.73633 17.25 8.24001 17.25 8.86133Z" fill="white"/>
<path fill-rule="evenodd" clip-rule="evenodd" d="M12 16.7363C14.0711 16.7363 15.75 15.0574 15.75 12.9863C15.75 10.9153 14.0711 9.23633 12 9.23633C9.92895 9.23633 8.25 10.9153 8.25 12.9863C8.25 15.0574 9.92895 16.7363 12 16.7363ZM12 15.2363C13.2427 15.2363 14.25 14.229 14.25 12.9863C14.25 11.7437 13.2427 10.7363 12 10.7363C10.7573 10.7363 9.75 11.7437 9.75 12.9863C9.75 14.229 10.7573 15.2363 12 15.2363Z" fill="white"/>
<path fill-rule="evenodd" clip-rule="evenodd" d="M4.5 12.6863C4.5 10.1661 4.5 8.90595 4.99047 7.94337C5.4219 7.09664 6.11031 6.40823 6.95705 5.9768C7.91963 5.48633 9.17978 5.48633 11.7 5.48633H12.3C14.8202 5.48633 16.0804 5.48633 17.0429 5.9768C17.8897 6.40823 18.5781 7.09664 19.0095 7.94337C19.5 8.90595 19.5 10.1661 19.5 12.6863V13.2863C19.5 15.8066 19.5 17.0667 19.0095 18.0293C18.5781 18.876 17.8897 19.5644 17.0429 19.9958C16.0804 20.4863 14.8202 20.4863 12.3 20.4863H11.7C9.17978 20.4863 7.91963 20.4863 6.95705 19.9958C6.11031 19.5644 5.4219 18.876 4.99047 18.0293C4.5 17.0667 4.5 15.8066 4.5 13.2863V12.6863ZM11.7 6.98633H12.3C13.5849 6.98633 14.4583 6.9875 15.1334 7.04265C15.7911 7.09638 16.1274 7.19377 16.362 7.31331C16.9264 7.60093 17.3854 8.05987 17.673 8.62433C17.7925 8.85893 17.89 9.19523 17.9437 9.8529C17.9988 10.5281 18 11.4014 18 12.6863V13.2863C18 14.5712 17.9988 15.4446 17.9437 16.1198C17.89 16.7774 17.7925 17.1137 17.673 17.3483C17.3854 17.9128 16.9264 18.3717 16.362 18.6593C16.1274 18.7789 15.7911 18.8763 15.1334 18.93C14.4583 18.9851 13.5849 18.9863 12.3 18.9863H11.7C10.4151 18.9863 9.54172 18.9851 8.86657 18.93C8.2089 18.8763 7.8726 18.7789 7.638 18.6593C7.07354 18.3717 6.6146 17.9128 6.32698 17.3483C6.20744 17.1137 6.11005 16.7774 6.05632 16.1198C6.00117 15.4446 6 14.5712 6 13.2863V12.6863C6 11.4014 6.00117 10.5281 6.05632 9.8529C6.11005 9.19523 6.20744 8.85893 6.32698 8.62433C6.6146 8.05987 7.07354 7.60093 7.638 7.31331C7.8726 7.19377 8.2089 7.09638 8.86657 7.04265C9.54172 6.9875 10.4151 6.98633 11.7 6.98633Z" fill="white"/>
<defs>
<radialGradient id="paint0_radial_478_661" cx="0" cy="0" r="1" gradientUnits="userSpaceOnUse" gradientTransform="translate(9 18.2363) rotate(-55.3758) scale(19.1397)">
<stop stop-color="#B13589"/>
<stop offset="0.79309" stop-color="#C62F94"/>
<stop offset="1" stop-color="#8A3AC8"/>
</radialGradient>
<radialGradient id="paint1_radial_478_661" cx="0" cy="0" r="1" gradientUnits="userSpaceOnUse" gradientTransform="translate(8.25 24.2363) rotate(-65.1363) scale(16.9457)">
<stop stop-color="#E0E8B7"/>
<stop offset="0.444662" stop-color="#FB8A2E"/>
<stop offset="0.71474" stop-color="#E2425C"/>
<stop offset="1" stop-color="#E2425C" stop-opacity="0"/>
</radialGradient>
<radialGradient id="paint2_radial_478_661" cx="0" cy="0" r="1" gradientUnits="userSpaceOnUse" gradientTransform="translate(0.375 3.23633) rotate(-8.1301) scale(29.1682 6.23877)">
<stop offset="0.156701" stop-color="#406ADC"/>
<stop offset="0.467799" stop-color="#6A45BE"/>
<stop offset="1" stop-color="#6A45BE" stop-opacity="0"/>
</radialGradient>
</defs>
</svg>
