<svg width="24" height="25" viewBox="0 0 24 25" fill="none" xmlns="http://www.w3.org/2000/svg">
<path d="M18.3375 19.3239H15.6705V15.1463C15.6705 14.1503 15.6525 12.8678 14.283 12.8678C12.894 12.8678 12.681 13.9538 12.681 15.0728V19.3239H10.014V10.7333H12.5745V11.9078H12.6105C13.1325 11.0168 14.1045 10.4828 15.1365 10.5203C17.8395 10.5203 18.339 12.2978 18.339 14.6123L18.3375 19.3223V19.3239ZM7.005 9.55885C6.59531 9.55688 6.20294 9.39336 5.9131 9.10381C5.62327 8.81425 5.45937 8.42204 5.457 8.01235C5.457 7.16335 6.156 6.46435 7.005 6.46435C7.854 6.46435 8.5515 7.16335 8.553 8.01235C8.553 8.86135 7.854 9.55885 7.005 9.55885ZM8.3385 19.3239H5.6685V10.7333H8.3385V19.3239ZM19.665 3.98635H4.3275C3.97973 3.98433 3.64521 4.11964 3.39663 4.36287C3.14806 4.60611 3.00553 4.93761 3 5.28535V20.6873C3.00553 21.0351 3.14806 21.3666 3.39663 21.6098C3.64521 21.8531 3.97973 21.9884 4.3275 21.9863H19.6665C20.0151 21.9892 20.3507 21.8543 20.6004 21.6111C20.8501 21.3678 20.9937 21.0359 21 20.6873V5.28385C20.9937 4.93559 20.85 4.60394 20.6002 4.36118C20.3504 4.11842 20.0148 3.98423 19.6665 3.98785L19.665 3.98635Z" fill="#0A66C2"/>
</svg>
