<svg width="24" height="25" viewBox="0 0 24 25" fill="none" xmlns="http://www.w3.org/2000/svg">
<g clip-path="url(#clip0_478_681)">
<path d="M12 0.986328C5.37253 0.986328 0 6.35886 0 12.9863C0 19.6138 5.37253 24.9863 12 24.9863C18.6275 24.9863 24 19.6138 24 12.9863C24 6.35886 18.6275 0.986328 12 0.986328Z" fill="#40B3E0"/>
<path d="M17.839 7.88954L15.6957 18.6958C15.6957 18.6958 15.396 19.4453 14.5716 19.0855L9.62556 15.2935L7.82706 14.4243L4.7995 13.405C4.7995 13.405 4.33488 13.2402 4.28988 12.8805C4.24497 12.5208 4.8145 12.326 4.8145 12.326L16.8498 7.60472C16.8498 7.60472 17.839 7.1701 17.839 7.88954Z" fill="white"/>
<path d="M9.24549 18.575C9.24549 18.575 9.10112 18.5615 8.92121 17.9919C8.7414 17.4224 7.82715 14.4248 7.82715 14.4248L15.0962 9.80856C15.0962 9.80856 15.516 9.55375 15.501 9.80856C15.501 9.80856 15.5759 9.85347 15.3511 10.0633C15.1262 10.2732 9.64065 15.2042 9.64065 15.2042" fill="#D2E5F1"/>
<path d="M11.522 16.7479L9.56561 18.5316C9.56561 18.5316 9.41271 18.6477 9.24536 18.5749L9.61999 15.2617" fill="#B5CFE4"/>
</g>
<defs>
<clipPath id="clip0_478_681">
<rect width="24" height="24" fill="white" transform="translate(0 0.986328)"/>
</clipPath>
</defs>
</svg>
