<svg width="24" height="25" viewBox="0 0 24 25" fill="none" xmlns="http://www.w3.org/2000/svg">
<path fill-rule="evenodd" clip-rule="evenodd" d="M24 5.35495C23.1182 5.75654 22.1687 6.02812 21.1727 6.14946C22.1898 5.52541 22.9702 4.53588 23.3379 3.35712C22.3856 3.93494 21.3333 4.35531 20.2092 4.58066C19.3133 3.5998 18.0328 2.9873 16.6156 2.9873C13.8982 2.9873 11.6936 5.24805 11.6936 8.03606C11.6936 8.43187 11.7359 8.81613 11.8204 9.18594C7.72812 8.97503 4.10072 6.96708 1.67072 3.90894C1.2467 4.65722 1.00439 5.52541 1.00439 6.44993C1.00439 8.20074 1.87357 9.74643 3.19493 10.6522C2.38916 10.6276 1.62845 10.3979 0.963547 10.0223V10.0844C0.963547 12.5315 2.66103 14.5727 4.91495 15.035C4.5022 15.1534 4.06691 15.2127 3.61754 15.2127C3.30058 15.2127 2.99067 15.1823 2.69061 15.1231C3.31748 17.1281 5.1347 18.5886 7.29001 18.6276C5.6052 19.9826 3.48089 20.7901 1.17485 20.7901C0.777597 20.7901 0.384575 20.767 0 20.7208C2.17926 22.1509 4.76844 22.9873 7.54781 22.9873C16.6057 22.9873 21.5573 15.295 21.5573 8.62255C21.5573 8.40298 21.5531 8.1834 21.5446 7.96816C22.5068 7.25599 23.3421 6.36759 24 5.35495Z" fill="#00AAEC"/>
</svg>
