<svg width="24" height="25" viewBox="0 0 24 25" fill="none" xmlns="http://www.w3.org/2000/svg">
<path fill-rule="evenodd" clip-rule="evenodd" d="M9.522 16.1223L9.52125 9.33118L16.0058 12.7384L9.522 16.1223ZM23.76 8.15439C23.76 8.15439 23.5252 6.48891 22.806 5.75549C21.8932 4.79246 20.8702 4.78792 20.4015 4.73203C17.043 4.4873 12.0052 4.4873 12.0052 4.4873H11.9948C11.9948 4.4873 6.957 4.4873 3.5985 4.73203C3.129 4.78792 2.10675 4.79246 1.19325 5.75549C0.474003 6.48891 0.239998 8.15439 0.239998 8.15439C0.239998 8.15439 0 10.1107 0 12.0662V13.9001C0 15.8564 0.239998 17.8119 0.239998 17.8119C0.239998 17.8119 0.474003 19.4774 1.19325 20.2108C2.10675 21.1738 3.306 21.1436 3.84 21.2441C5.76 21.4299 12 21.4873 12 21.4873C12 21.4873 17.043 21.4798 20.4015 21.235C20.8702 21.1784 21.8932 21.1738 22.806 20.2108C23.5252 19.4774 23.76 17.8119 23.76 17.8119C23.76 17.8119 24 15.8564 24 13.9001V12.0662C24 10.1107 23.76 8.15439 23.76 8.15439Z" fill="#CE1312"/>
</svg>
