<svg width="139" height="341" viewBox="0 0 139 341" fill="none" xmlns="http://www.w3.org/2000/svg">
<g id="heart">
<g id="heart-1">
<path id="heart_2" d="M123.332 289.313C120.146 285.715 115.743 283.734 110.933 283.734C107.155 283.734 103.621 285.271 100.713 288.18C98.7723 290.12 97.1713 292.587 96.0001 295.421C94.8288 292.587 93.228 290.12 91.2878 288.18C88.3794 285.271 84.845 283.734 81.0669 283.734C76.2573 283.734 71.8541 285.715 68.6684 289.313C65.7015 292.663 64 297.239 64 301.867C64 307.424 65.6815 312.909 68.9976 318.169C71.6237 322.335 75.276 326.367 79.8532 330.155C87.609 336.574 95.2425 340.03 95.5636 340.174C95.839 340.297 96.161 340.297 96.4362 340.174C96.7575 340.03 104.391 336.574 112.147 330.155C116.724 326.367 120.376 322.335 123.002 318.169C126.319 312.909 128 307.424 128 301.867C128 297.239 126.298 292.663 123.332 289.313Z" fill="#008DFF"/>
</g>
<g id="heart-2">
<path id="heart_3" d="M59.3319 233.579C56.1461 229.981 51.7429 228 46.9334 228C43.1553 228 39.6209 229.537 36.7125 232.446C34.7723 234.386 33.1713 236.853 32.0001 239.687C30.8288 236.853 29.228 234.386 27.2878 232.446C24.3794 229.537 20.845 228 17.0669 228C12.2573 228 7.85413 229.981 4.66838 233.579C1.7015 236.929 0 241.505 0 246.133C0 251.691 1.6815 257.175 4.99762 262.436C7.62375 266.601 11.276 270.634 15.8532 274.422C23.609 280.84 31.2425 284.296 31.5636 284.44C31.839 284.563 32.161 284.563 32.4362 284.44C32.7575 284.296 40.3909 280.84 48.1466 274.422C52.7239 270.634 56.3761 266.601 59.0023 262.436C62.3185 257.175 64 251.691 64 246.133C64 241.505 62.2985 236.929 59.3319 233.579Z" fill="#008DFF"/>
</g>
<g id="heart-3">
<path id="heart_4" d="M134.332 176.579C131.146 172.981 126.743 171 121.933 171C118.155 171 114.621 172.537 111.713 175.446C109.772 177.386 108.171 179.853 107 182.687C105.829 179.853 104.228 177.386 102.288 175.446C99.3794 172.537 95.845 171 92.0669 171C87.2573 171 82.8541 172.981 79.6684 176.579C76.7015 179.929 75 184.505 75 189.133C75 194.691 76.6815 200.175 79.9976 205.436C82.6237 209.601 86.276 213.634 90.8532 217.422C98.609 223.84 106.243 227.296 106.564 227.44C106.839 227.563 107.161 227.563 107.436 227.44C107.757 227.296 115.391 223.84 123.147 217.422C127.724 213.634 131.376 209.601 134.002 205.436C137.319 200.175 139 194.691 139 189.133C139 184.505 137.298 179.929 134.332 176.579Z" fill="#008DFF"/>
</g>
<g id="heart-4">
<path id="heart_5" d="M59.3319 119.579C56.1461 115.981 51.7429 114 46.9334 114C43.1553 114 39.6209 115.537 36.7125 118.446C34.7723 120.386 33.1713 122.853 32.0001 125.687C30.8288 122.853 29.228 120.386 27.2878 118.446C24.3794 115.537 20.845 114 17.0669 114C12.2573 114 7.85413 115.981 4.66838 119.579C1.7015 122.929 0 127.505 0 132.133C0 137.691 1.6815 143.175 4.99762 148.436C7.62375 152.601 11.276 156.634 15.8532 160.422C23.609 166.84 31.2425 170.296 31.5636 170.44C31.839 170.563 32.161 170.563 32.4362 170.44C32.7575 170.296 40.3909 166.84 48.1466 160.422C52.7239 156.634 56.3761 152.601 59.0023 148.436C62.3185 143.175 64 137.691 64 132.133C64 127.505 62.2985 122.929 59.3319 119.579Z" fill="#008DFF"/>
</g>
<g id="heart-5">
<path id="heart_6" d="M123.332 62.5791C120.146 58.9812 115.743 57 110.933 57C107.155 57 103.621 58.5374 100.713 61.4457C98.7723 63.3861 97.1713 65.8532 96.0001 68.6871C94.8288 65.8532 93.228 63.3862 91.2878 61.4457C88.3794 58.5374 84.845 57 81.0669 57C76.2573 57 71.8541 58.9814 68.6684 62.5792C65.7015 65.9294 64 70.5051 64 75.1333C64 80.6905 65.6815 86.1751 68.9976 91.4355C71.6237 95.601 75.276 99.6336 79.8532 103.422C87.609 109.84 95.2425 113.296 95.5636 113.44C95.839 113.563 96.161 113.563 96.4362 113.44C96.7575 113.296 104.391 109.84 112.147 103.422C116.724 99.6336 120.376 95.601 123.002 91.4355C126.319 86.1751 128 80.6905 128 75.1333C128 70.5051 126.298 65.9294 123.332 62.5791Z" fill="#008DFF"/>
</g>
<g id="heart-6">
<path id="heart_7" d="M59.3319 5.57912C56.1461 1.98125 51.7429 0 46.9334 0C43.1553 0 39.6209 1.53737 36.7125 4.44575C34.7723 6.38612 33.1713 8.85325 32.0001 11.6871C30.8288 8.85325 29.228 6.38625 27.2878 4.44575C24.3794 1.53737 20.845 0 17.0669 0C12.2573 0 7.85413 1.98137 4.66838 5.57925C1.7015 8.92937 0 13.5051 0 18.1333C0 23.6905 1.6815 29.1751 4.99762 34.4355C7.62375 38.601 11.276 42.6336 15.8532 46.4216C23.609 52.8401 31.2425 56.296 31.5636 56.4399C31.839 56.5634 32.161 56.5634 32.4362 56.4399C32.7575 56.296 40.3909 52.8401 48.1466 46.4216C52.7239 42.6336 56.3761 38.601 59.0023 34.4355C62.3185 29.1751 64 23.6905 64 18.1333C64 13.5051 62.2985 8.92937 59.3319 5.57912Z" fill="#008DFF"/>
</g>
</g>
</svg>
