<svg id="tokenomics" xmlns="http://www.w3.org/2000/svg" viewBox="0 0 516.1 516.2"><defs><style>.cls-1{fill:#8721ee;}.cls-1,.cls-10,.cls-2,.cls-3,.cls-4,.cls-5,.cls-6,.cls-7,.cls-8,.cls-9{stroke:#0c141b;strokeLinecap:square;strokeWidth:16px;}.cls-2{fill:#793af4;}.cls-3{fill:#6b4afa;}.cls-4{fill:#5c57fe;}.cls-5{fill:#4c63ff;}.cls-6{fill:#3b6dff;}.cls-7{fill:#2a76ff;}.cls-8{fill:#187eff;}.cls-9{fill:#0486ff;}.cls-10{fill:#008dff;}</style></defs><title>chart</title><g id="liquidity"><path class="cls-1" d="M500,250c0,138.1-111.9,250-250,250S0,388.1,0,250,111.9,0,250,0,500,111.9,500,250ZM25,250c0,124.3,100.7,225,225,225S475,374.3,475,250,374.3,25,250,25,25,125.7,25,250Z" transform="translate(8 8)"/></g><g id="ido"><path class="cls-2" d="M250,0a249.8,249.8,0,1,1-46.8,4.4L207.9,29A224.9,224.9,0,1,0,250,25Z" transform="translate(8 8)"/></g><g id="advisors"><path class="cls-3" d="M250,0a250.3,250.3,0,1,1-92,17.6l9.2,23.2A224.7,224.7,0,1,0,250,25Z" transform="translate(8 8)"/></g><g id="marketing"><path class="cls-4" d="M250,0A249.8,249.8,0,1,1,116,38.9L129.4,60A225.1,225.1,0,1,0,250,25Z" transform="translate(8 8)"/></g><g id="seed-sale"><path class="cls-5" d="M250,0A250.2,250.2,0,1,1,67.8,78.9L86,96A224.9,224.9,0,1,0,250,25Z" transform="translate(8 8)"/></g><g id="private-sale"><path class="cls-6" d="M250,0A249.8,249.8,0,1,1,30.9,129.6l21.9,12A225.1,225.1,0,1,0,250,25Z" transform="translate(8 8)"/></g><g id="parnerships"><path class="cls-7" d="M250,0A250.1,250.1,0,1,1,4.4,203.2L29,207.9A224.9,224.9,0,1,0,250,25Z" transform="translate(8 8)"/></g><g id="team"><path class="cls-8" d="M250,0A250.1,250.1,0,1,1,2,281.3l24.8-3.1A225,225,0,1,0,250.1,25.1V0Z" transform="translate(8 8)"/></g><g id="treasury-fund"><path class="cls-9" d="M250,0A250,250,0,1,1,47.6,397L68,382.3A224.9,224.9,0,1,0,250,25Z" transform="translate(8 8)"/></g><g id="economy"><path class="cls-10" d="M250,0a250,250,0,0,1,77.3,487.7l-7.7-23.8A224.9,224.9,0,0,0,250,25Z" transform="translate(8 8)"/></g></svg>