<?xml version="1.0" encoding="utf-8"?>
<svg version="1.0" id="tokenomics" x="0px" y="0px"
	 viewBox="0 0 500 500" style="enable-background:new 0 0 500 500;" xml:space="preserve">
<style type="text/css">
	.liquidity{fill:#8721EE;stroke:#0C141B;stroke-width:16;stroke-linecap:square;}
	.st1{fill:#793AF4;stroke:#0C141B;stroke-width:16;stroke-linecap:square;}
	.st2{fill:#6B4AFA;stroke:#0C141B;stroke-width:16;stroke-linecap:square;}
	.st3{fill:#5C57FE;stroke:#0C141B;stroke-width:16;stroke-linecap:square;}
	.st4{fill:#4C63FF;stroke:#0C141B;stroke-width:16;stroke-linecap:square;}
	.st5{fill:#3B6DFF;stroke:#0C141B;stroke-width:16;stroke-linecap:square;}
	.st6{fill:#2A76FF;stroke:#0C141B;stroke-width:16;stroke-linecap:square;}
	.st7{fill:#187EFF;stroke:#0C141B;stroke-width:16;stroke-linecap:square;}
	.st8{fill:#0486FF;stroke:#0C141B;stroke-width:16;stroke-linecap:square;}
	.st9{fill:#008DFF;stroke:#0C141B;stroke-width:16;stroke-linecap:square;}
</style>
<g id="liquidity" class="liquidity">
	<path class="liquidity" id="liquidity" d="M500,250c0,138.1-111.9,250-250,250S0,388.1,0,250S111.9,0,250,0S500,111.9,500,250z M25,250
		c0,124.3,100.7,225,225,225s225-100.7,225-225S374.3,25,250,25S25,125.7,25,250z"/>
</g>
<g id="ido">
	<path class="st1" d="M250,0c64.3,0,126.1,24.7,172.6,69.1s74.1,104.9,77.2,169.1c3,64.2-18.8,127.1-60.9,175.6s-101.3,79-165.3,85
		S145.8,486,95.3,446.2s-83.8-97.4-92.8-161s6.7-128.3,44.1-180.6C84,52.4,140,16.5,203.2,4.4l4.7,24.6
		c-56.9,10.8-107.3,43.1-141,90.2c-33.6,47.1-47.8,105.3-39.7,162.5c8.1,57.3,38,109.2,83.5,145c45.4,35.8,102.9,52.7,160.5,47.3
		c57.6-5.4,110.9-32.9,148.8-76.5c37.9-43.7,57.5-100.3,54.8-158.1s-27.6-112.3-69.4-152.2C363.5,47.3,307.8,25,250,25V0z"/>
</g>
<g id="advisors">
	<path class="st2" d="M250,0c62.2,0,122.2,23.2,168.3,65.1c46,41.9,74.8,99.4,80.6,161.4c5.9,62-11.6,123.9-49,173.6
		s-91.9,83.8-153.1,95.5c-61.1,11.7-124.4,0.1-177.5-32.4c-53-32.6-92-83.7-109.4-143.5C-7.4,260-1.9,195.9,25.5,140
		S100.1,40.5,158,17.6l9.2,23.2C115.1,61.4,72.6,100.7,47.9,151c-24.6,50.3-29.6,108-14,161.8s50.7,99.8,98.5,129.1
		c47.8,29.3,104.7,39.7,159.7,29.2s104.1-41.1,137.8-85.9c33.6-44.8,49.3-100.5,44.1-156.3c-5.3-55.8-31.1-107.5-72.6-145.2
		C360,45.9,306,25,250,25V0z"/>
</g>
<g id="marketing">
	<path class="st3" d="M250,0c60.2,0,118.4,21.7,163.9,61.2s75.2,94,83.7,153.6s-4.8,120.3-37.5,170.8
		c-32.7,50.6-82.5,87.7-140.3,104.5c-57.8,16.8-119.7,12.2-174.4-13S47,407.8,22.2,352.9C-2.6,298-6.8,236,10.5,178.4
		C27.7,120.7,65.2,71.2,116,38.9L129.4,60c-45.7,29-79.5,73.6-95,125.5S22.6,293.2,44.9,342.6s61.7,89.1,110.9,111.7
		c49.2,22.7,104.9,26.9,157,11.7s96.9-48.5,126.2-94c29.4-45.5,41.4-100.1,33.7-153.8c-7.6-53.6-34.4-102.7-75.3-138.2
		S304.2,25,250,25V0z"/>
</g>
<g id="seed-sale">
	<path class="st4" d="M250,0c57.5,0,113.2,19.8,157.8,56.1s75.3,86.9,87,143.2s3.6,114.9-23,165.9c-26.5,51-69.8,91.4-122.6,114.2
		s-111.8,26.8-167.1,11.2S78.5,440.8,45.5,393.8S-3.4,289.7,0.6,232.3S28.4,120.8,67.8,78.9L86,96c-35.4,37.7-56.8,86.5-60.4,138.1
		C21.9,285.7,36.2,337,65.9,379.4c29.8,42.3,73.2,73.1,123,87.2c49.8,14,102.9,10.5,150.4-10.1s86.5-56.9,110.3-102.8
		s31.2-98.7,20.7-149.3c-10.5-50.7-38.1-96.2-78.3-128.9C351.9,42.8,301.8,25,250,25V0z"/>
</g>
<g id="private-sale">
	<path class="st5" d="M250,0c54.8,0,108.1,18,151.7,51.3s75,79.9,89.5,132.8s11.2,109-9.4,159.8s-57.3,93.4-104.5,121.3
		s-102.2,39.5-156.6,33.1s-105.2-30.6-144.6-68.7S11,341.4,2.9,287.2c-8.3-54.2,1.6-109.6,28-157.6l21.9,12
		C29,184.8,20.1,234.7,27.5,283.4c7.3,48.8,30.5,93.8,65.9,128.1s81.1,56.1,130.1,61.9s98.5-4.7,141-29.8
		c42.5-25.1,75.5-63.5,94-109.2s21.5-96.3,8.5-143.8C454,143,425.7,101,386.5,71.1S299.3,25,250,25V0z"/>
</g>
<g id="parnerships">
	<path class="st6" d="M250,0c51.5,0,101.7,15.9,143.8,45.5s74,71.4,91.5,119.9c17.4,48.4,19.5,101,5.9,150.7
		c-13.6,49.6-42.1,93.9-81.8,126.7s-88.4,52.6-139.7,56.6s-102.6-7.9-146.9-34C78.5,439,43.3,399.8,22.1,352.9
		C1,306-5.2,253.7,4.4,203.2l24.6,4.7c-8.7,45.5-3.1,92.5,15.9,134.8c19.1,42.2,50.7,77.5,90.5,101.1c39.9,23.6,86,34.3,132.2,30.6
		c46.2-3.6,90.1-21.4,125.8-50.9s61.4-69.3,73.6-114s10.4-92-5.3-135.6C446,130.3,417.3,92.7,379.4,66S296.3,25,250,25V0z"/>
</g>
<g id="team">
	<path class="st7" d="M250,0c48.1,0,95.2,13.9,135.6,40s72.4,63.3,92.2,107.1s26.5,92.5,19.4,140c-7.2,47.6-27.9,92.1-59.7,128.2
		s-73.4,62.2-119.7,75.3c-46.3,13.1-95.4,12.5-141.4-1.7c-46-14.1-86.9-41.3-117.9-78.1S8,329.1,2,281.3l24.8-3.1
		c5.4,43,23.1,83.4,51,116.6c27.9,33.1,64.7,57.5,106.1,70.3c41.4,12.7,85.6,13.3,127.2,1.5c41.7-11.8,79.1-35.3,107.7-67.8
		s47.3-72.5,53.7-115.3c6.4-42.8,0.4-86.6-17.4-126c-17.8-39.5-46.6-72.9-83-96.4s-78.8-36-122-36V0H250z"/>
</g>
<g id="treasury-fund">
	<path class="st8" d="M250,0c42.8,0,84.8,11,122.2,31.9s68.7,51,91,87.5c22.4,36.5,35,78.1,36.6,120.8c1.7,42.7-7.6,85.2-27.1,123.3
		c-19.4,38.1-48.3,70.6-83.9,94.4s-76.6,38-119.3,41.4c-42.6,3.4-85.4-4.3-124.3-22.2c-38.8-17.9-72.4-45.5-97.6-80.1L68,382.3
		c22.6,31.1,52.9,56,87.8,72.1c35,16.1,73.5,23,111.9,20S343,458.6,375,437.2c32-21.4,58-50.6,75.5-84.9s25.9-72.5,24.4-111
		s-12.9-75.9-33-108.7S393.6,72.7,360,53.9C326.4,34.9,288.5,25,250,25V0z"/>
</g>
<g id="economy">
	<path class="st9" d="M250,0c59.5,0,117.1,21.2,162.4,59.9s75.2,92.2,84.6,151s-2.7,119-33.8,169.7s-79.3,88.7-135.9,107.1
		l-7.7-23.8c51-16.6,94.3-50.7,122.3-96.4s38.8-99.8,30.4-152.8c-8.4-52.9-35.4-101.1-76.1-135.9C355.4,44.1,303.6,25,250,25V0z"/>
</g>
</svg>
