<svg id="tokenomics" xmlns="http://www.w3.org/2000/svg" xmlns:xlink="http://www.w3.org/1999/xlink" viewBox="0 0 516 516"><defs><style>.cls-1{fill:#fff;}.cls-2{mask:url(#mask);}.cls-3{fill:#8721ee;}.cls-11,.cls-13,.cls-15,.cls-17,.cls-19,.cls-21,.cls-3,.cls-5,.cls-7,.cls-9{stroke:#0c141b;strokeLinecap:square;strokeWidth:16px;}.cls-4{mask:url(#mask-2);}.cls-5{fill:#793af4;}.cls-6{mask:url(#mask-3);}.cls-7{fill:#6b4afa;}.cls-8{mask:url(#mask-4);}.cls-9{fill:#5c57fe;}.cls-10{mask:url(#mask-5);}.cls-11{fill:#4c63ff;}.cls-12{mask:url(#mask-6);}.cls-13{fill:#3b6dff;}.cls-14{mask:url(#mask-7);}.cls-15{fill:#2a76ff;}.cls-16{mask:url(#mask-8);}.cls-17{fill:#187eff;}.cls-18{mask:url(#mask-9);}.cls-19{fill:#0486ff;}.cls-20{mask:url(#mask-10);}.cls-21{fill:#008dff;}</style><mask id="mask" x="0" y="0" width="516" height="516" maskUnits="userSpaceOnUse"><g transform="translate(8 8)"><g id="path-1-inside-1_1101_1452" data-name="path-1-inside-1 1101 1452"><path class="cls-1" d="M500,250c0,138.1-111.9,250-250,250S0,388.1,0,250,111.9,0,250,0,500,111.9,500,250ZM25,250c0,124.3,100.7,225,225,225S475,374.3,475,250,374.3,25,250,25,25,125.7,25,250Z"/></g></g></mask><mask id="mask-2" x="0" y="0" width="516" height="516" maskUnits="userSpaceOnUse"><g transform="translate(8 8)"><g id="path-2-inside-2_1101_1452" data-name="path-2-inside-2 1101 1452"><path class="cls-1" d="M250,0a249.8,249.8,0,1,1-46.8,4.4L207.8,29A224.9,224.9,0,1,0,250,25Z"/></g></g></mask><mask id="mask-3" x="0" y="0" width="516" height="516" maskUnits="userSpaceOnUse"><g transform="translate(8 8)"><g id="path-3-inside-3_1101_1452" data-name="path-3-inside-3 1101 1452"><path class="cls-1" d="M250,0a250.3,250.3,0,1,1-92,17.6l9.2,23.2A224.9,224.9,0,1,0,250,25Z"/></g></g></mask><mask id="mask-4" x="0" y="0" width="516" height="516" maskUnits="userSpaceOnUse"><g transform="translate(8 8)"><g id="path-4-inside-4_1101_1452" data-name="path-4-inside-4 1101 1452"><path class="cls-1" d="M250,0A249.9,249.9,0,1,1,90.6,57.4l16,19.2A225,225,0,1,0,250,25Z"/></g></g></mask><mask id="mask-5" x="0" y="0" width="516" height="516" maskUnits="userSpaceOnUse"><g transform="translate(8 8)"><g id="path-5-inside-5_1101_1452" data-name="path-5-inside-5 1101 1452"><path class="cls-1" d="M250,0A249.9,249.9,0,1,1,38.9,116L60,129.4A225.1,225.1,0,1,0,250,25Z"/></g></g></mask><mask id="mask-6" x="0" y="0" width="516" height="516" maskUnits="userSpaceOnUse"><g transform="translate(8 8)"><g id="path-6-inside-6_1101_1452" data-name="path-6-inside-6 1101 1452"><path class="cls-1" d="M250,0A250.1,250.1,0,1,1,.5,234.3l24.9,1.6A225.1,225.1,0,1,0,250,25Z"/></g></g></mask><mask id="mask-7" x="35.88" y="0" width="480.12" height="516" maskUnits="userSpaceOnUse"><g transform="translate(8 8)"><g id="path-7-inside-7_1101_1452" data-name="path-7-inside-7 1101 1452"><path class="cls-1" d="M250,0A250,250,0,1,1,38.9,384L60,370.6A225,225,0,1,0,250,25Z"/></g></g></mask><mask id="mask-8" x="155.59" y="0" width="360.41" height="516" maskUnits="userSpaceOnUse"><g transform="translate(8 8)"><g id="path-8-inside-8_1101_1452" data-name="path-8-inside-8 1101 1452"><path class="cls-1" d="M250,0a250,250,0,1,1-92,482.4l9.2-23.2A225,225,0,1,0,250,25Z"/></g></g></mask><mask id="mask-9" x="250" y="0" width="266" height="461.89" maskUnits="userSpaceOnUse"><g transform="translate(8 8)"><g id="path-9-inside-9_1101_1452" data-name="path-9-inside-9 1101 1452"><path class="cls-1" d="M250,0A250,250,0,0,1,409.4,442.6l-16-19.2A225,225,0,0,0,250,25Z"/></g></g></mask><mask id="mask-10" x="250" y="0" width="255.84" height="198.55" maskUnits="userSpaceOnUse"><g transform="translate(8 8)"><g id="path-10-inside-10_1101_1452" data-name="path-10-inside-10 1101 1452"><path class="cls-1" d="M250,0A250.1,250.1,0,0,1,487.8,172.7L464,180.5A225,225,0,0,0,250,25Z"/></g></g></mask></defs><title>tokenomics</title><g id="advisors"><g class="cls-2"><path class="cls-3" d="M500,250c0,138.1-111.9,250-250,250S0,388.1,0,250,111.9,0,250,0,500,111.9,500,250ZM25,250c0,124.3,100.7,225,225,225S475,374.3,475,250,374.3,25,250,25,25,125.7,25,250Z" transform="translate(8 8)"/></g></g><g id="marketing"><g class="cls-4"><path class="cls-5" d="M250,0a249.8,249.8,0,1,1-46.8,4.4L207.8,29A224.9,224.9,0,1,0,250,25Z" transform="translate(8 8)"/></g></g><g id="liquidity"><g class="cls-6"><path class="cls-7" d="M250,0a250.3,250.3,0,1,1-92,17.6l9.2,23.2A224.9,224.9,0,1,0,250,25Z" transform="translate(8 8)"/></g></g><g id="partnerships"><g class="cls-8"><path class="cls-9" d="M250,0A249.9,249.9,0,1,1,90.6,57.4l16,19.2A225,225,0,1,0,250,25Z" transform="translate(8 8)"/></g></g><g id="team"><g class="cls-10"><path class="cls-11" d="M250,0A249.9,249.9,0,1,1,38.9,116L60,129.4A225.1,225.1,0,1,0,250,25Z" transform="translate(8 8)"/></g></g><g id="future-funding-2"><g class="cls-12"><path class="cls-13" d="M250,0A250.1,250.1,0,1,1,.5,234.3l24.9,1.6A225.1,225.1,0,1,0,250,25Z" transform="translate(8 8)"/></g></g><g id="future-funding-1"><g class="cls-14"><path class="cls-15" d="M250,0A250,250,0,1,1,38.9,384L60,370.6A225,225,0,1,0,250,25Z" transform="translate(8 8)"/></g></g><g id="seed-sale"><g class="cls-16"><path class="cls-17" d="M250,0a250,250,0,1,1-92,482.4l9.2-23.2A225,225,0,1,0,250,25Z" transform="translate(8 8)"/></g></g><g id="treasury-fund"><g class="cls-18"><path class="cls-19" d="M250,0A250,250,0,0,1,409.4,442.6l-16-19.2A225,225,0,0,0,250,25Z" transform="translate(8 8)"/></g></g><g id="economy"><g class="cls-20"><path id="path" class="cls-21" d="M250,0A250.1,250.1,0,0,1,487.8,172.7L464,180.5A225,225,0,0,0,250,25Z" transform="translate(8 8)"/></g></g></svg>