<svg width="618" height="738" viewBox="0 0 618 738" fill="none" xmlns="http://www.w3.org/2000/svg">
<path opacity="0.16" d="M361.841 256.28L279.159 308.78V425.366L361.841 481.72V256.28Z" fill="url(#paint0_linear_86_1807)"/>
<g filter="url(#filter0_f_86_1807)">
<path d="M361.841 256.28L279.159 308.78V425.366L361.841 481.72V256.28Z" fill="url(#paint1_linear_86_1807)"/>
</g>
<g filter="url(#filter1_f_86_1807)">
<path d="M361.841 256.28L279.159 308.78V425.366L361.841 481.72V256.28Z" fill="url(#paint2_linear_86_1807)"/>
</g>
<g filter="url(#filter2_b_86_1807)">
<path fill-rule="evenodd" clip-rule="evenodd" d="M237.628 336.321L278.969 310.071V422.791L237.628 394.614V336.321ZM152.238 381.839C148.564 391.111 141.692 398.834 132.814 403.671C123.935 408.508 113.608 410.154 103.62 408.325C93.6319 406.496 84.6116 401.306 78.1207 393.654C71.6299 386.002 68.0769 376.37 68.0769 366.425C68.0769 356.48 71.6299 346.847 78.1207 339.195C84.6116 331.544 93.6319 326.354 103.62 324.525C113.608 322.695 123.935 324.342 132.814 329.179C141.692 334.016 148.564 341.739 152.238 351.011H191.855V324.301C191.825 320.221 190.157 316.318 187.209 313.433C184.262 310.549 180.274 308.916 176.106 308.887H46.917C42.7493 308.916 38.7607 310.549 35.8136 313.433C32.8665 316.318 31.1977 320.221 31.1681 324.301L31.1681 408.365C31.1977 412.444 32.8665 416.348 35.8136 419.232C38.7607 422.117 42.7493 423.75 46.917 423.779H176.112C180.28 423.75 184.269 422.117 187.216 419.232C190.163 416.348 191.832 412.444 191.861 408.365V395.602H223.353V409.328C223.329 421.267 218.474 432.709 209.849 441.151C201.224 449.592 189.532 454.345 177.335 454.367H46.1773C33.9797 454.345 22.2882 449.592 13.6632 441.151C5.03818 432.709 0.182379 421.267 0.15918 409.328L0.15918 323.319C0.182379 311.381 5.03818 299.938 13.6632 291.497C22.2882 283.055 33.9797 278.302 46.1773 278.28H177.341C189.539 278.302 201.23 283.055 209.855 291.497C218.48 299.938 223.336 311.381 223.359 323.319V381.612L152.238 381.851V381.839ZM130.583 362.571L105.505 348.36C104.823 348.004 104.062 347.817 103.289 347.817C102.516 347.817 101.755 348.004 101.073 348.36C100.365 348.727 99.7803 349.286 99.3879 349.969C98.9955 350.652 98.8122 351.431 98.8597 352.214V380.636C98.8122 381.418 98.9955 382.198 99.3879 382.881C99.7803 383.564 100.365 384.123 101.073 384.49C101.755 384.846 102.516 385.033 103.289 385.033C104.062 385.033 104.823 384.846 105.505 384.49L130.583 370.278C131.259 369.876 131.818 369.31 132.206 368.635C132.593 367.961 132.797 367.199 132.797 366.425C132.797 365.651 132.593 364.889 132.206 364.214C131.818 363.54 131.259 362.974 130.583 362.571Z" fill="url(#paint3_linear_86_1807)"/>
<path d="M130.839 362.142L130.839 362.142C131.588 362.587 132.208 363.215 132.639 363.965C133.07 364.716 133.297 365.563 133.297 366.425C133.297 367.287 133.07 368.134 132.639 368.884C132.208 369.635 131.588 370.262 130.839 370.708L130.83 370.714L130.83 370.713L105.752 384.925L105.744 384.929L105.737 384.933C104.983 385.327 104.143 385.533 103.289 385.533C102.436 385.533 101.595 385.327 100.842 384.933C100.842 384.933 100.841 384.933 100.841 384.933L101.073 384.49C100.365 384.123 99.7803 383.564 99.3879 382.881C98.9955 382.198 98.8122 381.418 98.8597 380.636L130.839 362.142ZM130.839 362.142L130.83 362.136L105.752 347.925L105.744 347.921L105.737 347.917C104.983 347.523 104.143 347.317 103.289 347.317C102.436 347.317 101.596 347.523 100.843 347.916C100.051 348.327 99.3951 348.952 98.9543 349.72C98.5162 350.483 98.3096 351.353 98.3597 352.229V380.621L130.839 362.142ZM152.238 381.743L151.773 381.655C148.143 390.817 141.352 398.45 132.575 403.232C123.797 408.014 113.586 409.642 103.71 407.833C93.8341 406.025 84.9172 400.893 78.502 393.331C72.087 385.769 68.5769 376.251 68.5769 366.425C68.5769 356.599 72.087 347.081 78.502 339.519C84.9172 331.956 93.8341 326.825 103.71 325.017C113.586 323.208 123.797 324.836 132.575 329.618C141.352 334.4 148.143 342.033 151.773 351.195L151.898 351.511H152.238H191.855H192.355V351.011L192.355 324.301L192.355 324.297C192.324 320.083 190.6 316.052 187.559 313.076C184.518 310.1 180.405 308.417 176.109 308.387H176.106L46.917 308.387L46.9135 308.387C42.6178 308.417 38.5047 310.1 35.4639 313.076C32.4227 316.052 30.6987 320.083 30.6681 324.297V324.301L30.6681 408.365L30.6681 408.369C30.6987 412.583 32.4227 416.613 35.4639 419.59C38.5047 422.566 42.6178 424.249 46.9135 424.279H46.917L176.112 424.279L176.116 424.279C180.411 424.249 184.525 422.566 187.565 419.59C190.607 416.613 192.331 412.583 192.361 408.369V408.365V396.102H222.853V409.327C222.83 421.13 218.029 432.445 209.499 440.794C200.968 449.143 189.403 453.845 177.334 453.867H46.1783C34.1095 453.845 22.5436 449.143 14.0129 440.794C5.48271 432.445 0.682246 421.13 0.65918 409.328L0.65918 323.319C0.682246 311.517 5.48271 300.203 14.0129 291.854C22.5435 283.505 34.1092 278.802 46.1778 278.78H177.341C189.409 278.802 200.975 283.505 209.505 291.854C218.036 300.203 222.836 311.517 222.859 323.32V381.113L152.236 381.351L152.238 381.743ZM238.128 394.35V336.596L278.469 310.981V421.845L238.128 394.35Z" stroke="url(#paint4_linear_86_1807)"/>
</g>
<defs>
<filter id="filter0_f_86_1807" x="23.1592" y="0.279785" width="594.682" height="737.44" filterUnits="userSpaceOnUse" color-interpolation-filters="sRGB">
<feFlood flood-opacity="0" result="BackgroundImageFix"/>
<feBlend mode="normal" in="SourceGraphic" in2="BackgroundImageFix" result="shape"/>
<feGaussianBlur stdDeviation="128" result="effect1_foregroundBlur_86_1807"/>
</filter>
<filter id="filter1_f_86_1807" x="151.159" y="128.28" width="338.682" height="481.44" filterUnits="userSpaceOnUse" color-interpolation-filters="sRGB">
<feFlood flood-opacity="0" result="BackgroundImageFix"/>
<feBlend mode="normal" in="SourceGraphic" in2="BackgroundImageFix" result="shape"/>
<feGaussianBlur stdDeviation="64" result="effect1_foregroundBlur_86_1807"/>
</filter>
<filter id="filter2_b_86_1807" x="-15.8408" y="262.28" width="310.81" height="208.087" filterUnits="userSpaceOnUse" color-interpolation-filters="sRGB">
<feFlood flood-opacity="0" result="BackgroundImageFix"/>
<feGaussianBlur in="BackgroundImageFix" stdDeviation="8"/>
<feComposite in2="SourceAlpha" operator="in" result="effect1_backgroundBlur_86_1807"/>
<feBlend mode="normal" in="SourceGraphic" in2="effect1_backgroundBlur_86_1807" result="shape"/>
</filter>
<linearGradient id="paint0_linear_86_1807" x1="279.159" y1="357.78" x2="368.159" y2="357.78" gradientUnits="userSpaceOnUse">
<stop stop-color="#008DFF"/>
<stop offset="1" stop-color="#008DFF" stop-opacity="0"/>
</linearGradient>
<linearGradient id="paint1_linear_86_1807" x1="279.159" y1="357.78" x2="368.159" y2="357.78" gradientUnits="userSpaceOnUse">
<stop stop-color="#008DFF"/>
<stop offset="1" stop-color="#008DFF" stop-opacity="0"/>
</linearGradient>
<linearGradient id="paint2_linear_86_1807" x1="279.159" y1="357.78" x2="368.159" y2="357.78" gradientUnits="userSpaceOnUse">
<stop stop-color="#008DFF"/>
<stop offset="1" stop-color="#008DFF" stop-opacity="0"/>
</linearGradient>
<linearGradient id="paint3_linear_86_1807" x1="279.159" y1="366.28" x2="0.159183" y2="366.28" gradientUnits="userSpaceOnUse">
<stop stop-color="#10ACFF"/>
<stop offset="1" stop-color="#7200FF" stop-opacity="0.12"/>
</linearGradient>
<linearGradient id="paint4_linear_86_1807" x1="279.159" y1="366.28" x2="0.159183" y2="366.28" gradientUnits="userSpaceOnUse">
<stop stop-color="#008DFF"/>
<stop offset="1" stop-color="#008DFF" stop-opacity="0"/>
</linearGradient>
</defs>
</svg>
