<svg width="762" height="738" viewBox="0 0 762 738" fill="none" xmlns="http://www.w3.org/2000/svg">
<g opacity="0.01">
<path d="M393.633 305.431L383.682 302.63C383.093 302.483 382.649 302.041 382.501 301.451L379.701 291.499C379.258 289.803 376.825 289.803 376.309 291.499L373.509 301.451C373.361 302.041 372.919 302.483 372.329 302.63L362.377 305.431C360.682 305.873 360.682 308.306 362.377 308.823L372.329 311.623C372.919 311.77 373.361 312.213 373.509 312.802L376.309 322.755C376.753 324.45 379.185 324.45 379.701 322.755L382.501 312.802C382.649 312.213 383.093 311.77 383.682 311.623L393.633 308.749C395.33 308.306 395.33 305.873 393.633 305.431Z" fill="url(#paint0_linear_86_1808)"/>
</g>
<g opacity="0.676471">
<path d="M326.67 216.263L321.196 214.722C320.873 214.641 320.629 214.398 320.547 214.074L319.007 208.6C318.763 207.667 317.426 207.667 317.142 208.6L315.602 214.074C315.52 214.398 315.277 214.641 314.952 214.722L309.479 216.263C308.547 216.506 308.547 217.844 309.479 218.129L314.952 219.669C315.277 219.749 315.52 219.993 315.602 220.317L317.142 225.791C317.386 226.724 318.723 226.724 319.007 225.791L320.547 220.317C320.629 219.993 320.873 219.749 321.196 219.669L326.67 218.088C327.603 217.844 327.603 216.506 326.67 216.263Z" fill="url(#paint1_linear_86_1808)"/>
</g>
<g opacity="0.333334">
<path d="M192.086 525.616L183.129 523.095C182.599 522.963 182.2 522.565 182.067 522.034L179.547 513.077C179.148 511.55 176.959 511.55 176.494 513.077L173.974 522.034C173.841 522.565 173.443 522.963 172.912 523.095L163.955 525.616C162.43 526.014 162.43 528.203 163.955 528.669L172.912 531.189C173.443 531.321 173.841 531.72 173.974 532.25L176.494 541.208C176.893 542.733 179.082 542.733 179.547 541.208L182.067 532.25C182.2 531.72 182.599 531.321 183.129 531.189L192.086 528.602C193.613 528.203 193.613 526.014 192.086 525.616Z" fill="url(#paint2_linear_86_1808)"/>
</g>
<g opacity="0.333334">
<path d="M222.086 185.616L213.129 183.095C212.599 182.963 212.2 182.565 212.067 182.034L209.547 173.077C209.148 171.55 206.959 171.55 206.494 173.077L203.974 182.034C203.841 182.565 203.443 182.963 202.912 183.095L193.955 185.616C192.43 186.014 192.43 188.203 193.955 188.669L202.912 191.189C203.443 191.321 203.841 191.72 203.974 192.25L206.494 201.208C206.893 202.733 209.082 202.733 209.547 201.208L212.067 192.25C212.2 191.72 212.599 191.321 213.129 191.189L222.086 188.602C223.613 188.203 223.613 186.014 222.086 185.616Z" fill="url(#paint3_linear_86_1808)"/>
</g>
<g opacity="0.01">
<path d="M73.6331 445.431L63.6816 442.63C63.0927 442.483 62.6494 442.041 62.5012 441.45L59.701 431.499C59.2577 429.802 56.8254 429.802 56.3093 431.499L53.5091 441.45C53.3609 442.041 52.9189 442.483 52.3287 442.63L42.3772 445.431C40.682 445.873 40.682 448.305 42.3772 448.823L52.3287 451.623C52.9189 451.77 53.3609 452.213 53.5091 452.802L56.3093 462.755C56.7526 464.45 59.1849 464.45 59.701 462.755L62.5012 452.802C62.6494 452.213 63.0927 451.77 63.6816 451.623L73.6331 448.749C75.3296 448.305 75.3296 445.873 73.6331 445.431Z" fill="url(#paint4_linear_86_1808)"/>
</g>
<g opacity="0.37037">
<path d="M112.266 271.618L100.783 268.385C100.104 268.216 99.5923 267.706 99.4213 267.025L96.1903 255.542C95.6788 253.585 92.8723 253.585 92.2768 255.542L89.0458 267.025C88.8748 267.706 88.3648 268.216 87.6838 268.385L76.2013 271.618C74.2453 272.128 74.2453 274.934 76.2013 275.531L87.6838 278.762C88.3648 278.932 88.8748 279.443 89.0458 280.123L92.2768 291.607C92.7883 293.563 95.5948 293.563 96.1903 291.607L99.4213 280.123C99.5923 279.443 100.104 278.932 100.783 278.762L112.266 275.446C114.223 274.934 114.223 272.128 112.266 271.618Z" fill="url(#paint5_linear_86_1808)"/>
</g>
<g opacity="0.685185">
<path d="M243.035 479.739L231.552 476.507C230.873 476.337 230.361 475.827 230.19 475.146L226.959 463.664C226.448 461.706 223.641 461.706 223.046 463.664L219.815 475.146C219.644 475.827 219.134 476.337 218.453 476.507L206.97 479.739C205.014 480.249 205.014 483.056 206.97 483.653L218.453 486.884C219.134 487.053 219.644 487.565 219.815 488.244L223.046 499.728C223.557 501.684 226.364 501.684 226.959 499.728L230.19 488.244C230.361 487.565 230.873 487.053 231.552 486.884L243.035 483.567C244.992 483.056 244.992 480.249 243.035 479.739Z" fill="url(#paint6_linear_86_1808)"/>
</g>
<g opacity="0.944444">
<path d="M396.066 353.811L383.692 350.328C382.959 350.145 382.408 349.596 382.224 348.862L378.742 336.488C378.191 334.378 375.166 334.378 374.524 336.488L371.043 348.862C370.858 349.596 370.309 350.145 369.575 350.328L357.201 353.811C355.093 354.361 355.093 357.385 357.201 358.029L369.575 361.511C370.309 361.693 370.858 362.244 371.043 362.977L374.524 375.352C375.076 377.46 378.1 377.46 378.742 375.352L382.224 362.977C382.408 362.244 382.959 361.693 383.692 361.511L396.066 357.937C398.175 357.385 398.175 354.361 396.066 353.811Z" fill="url(#paint7_linear_86_1808)"/>
</g>
<g opacity="0.204082">
<path d="M433.724 451.706L420.215 447.903C419.416 447.704 418.814 447.104 418.613 446.302L414.811 432.794C414.21 430.491 410.908 430.491 410.207 432.794L406.406 446.302C406.205 447.104 405.605 447.704 404.804 447.903L391.295 451.706C388.994 452.306 388.994 455.608 391.295 456.31L404.804 460.111C405.605 460.311 406.205 460.912 406.406 461.712L410.207 475.222C410.809 477.524 414.111 477.524 414.811 475.222L418.613 461.712C418.814 460.912 419.416 460.311 420.215 460.111L433.724 456.209C436.027 455.608 436.027 452.306 433.724 451.706Z" fill="url(#paint8_linear_86_1808)"/>
</g>
<g opacity="0.795918">
<path d="M180.487 334.071L169.004 330.838C168.325 330.669 167.813 330.159 167.642 329.478L164.411 317.995C163.9 316.038 161.093 316.038 160.498 317.995L157.267 329.478C157.096 330.159 156.586 330.669 155.905 330.838L144.422 334.071C142.466 334.581 142.466 337.387 144.422 337.984L155.905 341.215C156.586 341.385 157.096 341.896 157.267 342.576L160.498 354.06C161.009 356.016 163.816 356.016 164.411 354.06L167.642 342.576C167.813 341.896 168.325 341.385 169.004 341.215L180.487 337.899C182.444 337.387 182.444 334.581 180.487 334.071Z" fill="url(#paint9_linear_86_1808)"/>
</g>
<g opacity="0.591837">
<path d="M68.5416 376.001L57.0591 372.768C56.3796 372.599 55.8681 372.089 55.6971 371.408L52.4661 359.925C51.9546 357.968 49.1481 357.968 48.5526 359.925L45.3216 371.408C45.1506 372.089 44.6406 372.599 43.9596 372.768L32.4771 376.001C30.5211 376.511 30.5211 379.317 32.4771 379.914L43.9596 383.145C44.6406 383.315 45.1506 383.826 45.3216 384.506L48.5526 395.99C49.0641 397.946 51.8706 397.946 52.4661 395.99L55.6971 384.506C55.8681 383.826 56.3796 383.315 57.0591 383.145L68.5416 379.829C70.4991 379.317 70.4991 376.511 68.5416 376.001Z" fill="url(#paint10_linear_86_1808)"/>
</g>
<path opacity="0.16" d="M505.841 256.28L423.159 308.78V425.366L505.841 481.72V256.28Z" fill="url(#paint11_linear_86_1808)"/>
<g filter="url(#filter0_f_86_1808)">
<path d="M505.841 256.28L423.159 308.78V425.366L505.841 481.72V256.28Z" fill="url(#paint12_linear_86_1808)"/>
</g>
<g filter="url(#filter1_f_86_1808)">
<path d="M505.841 256.28L423.159 308.78V425.366L505.841 481.72V256.28Z" fill="url(#paint13_linear_86_1808)"/>
</g>
<g filter="url(#filter2_b_86_1808)">
<path fill-rule="evenodd" clip-rule="evenodd" d="M381.628 336.321L422.969 310.071V422.791L381.628 394.614V336.321ZM296.238 381.839C292.564 391.111 285.692 398.834 276.814 403.671C267.935 408.508 257.608 410.154 247.62 408.325C237.632 406.496 228.612 401.306 222.121 393.654C215.63 386.002 212.077 376.37 212.077 366.425C212.077 356.48 215.63 346.847 222.121 339.195C228.612 331.544 237.632 326.354 247.62 324.525C257.608 322.695 267.935 324.342 276.814 329.179C285.692 334.016 292.564 341.739 296.238 351.011H335.855V324.301C335.825 320.221 334.157 316.318 331.209 313.433C328.262 310.549 324.274 308.916 320.106 308.887H190.917C186.749 308.916 182.761 310.549 179.814 313.433C176.866 316.318 175.198 320.221 175.168 324.301V408.365C175.198 412.444 176.866 416.348 179.814 419.232C182.761 422.117 186.749 423.75 190.917 423.779H320.112C324.28 423.75 328.269 422.117 331.216 419.232C334.163 416.348 335.832 412.444 335.861 408.365V395.602H367.353V409.328C367.329 421.267 362.474 432.709 353.849 441.151C345.224 449.592 333.532 454.345 321.335 454.367H190.177C177.98 454.345 166.288 449.592 157.663 441.151C149.038 432.709 144.182 421.267 144.159 409.328V323.319C144.182 311.381 149.038 299.938 157.663 291.497C166.288 283.055 177.98 278.302 190.177 278.28H321.341C333.539 278.302 345.23 283.055 353.855 291.497C362.48 299.938 367.336 311.381 367.359 323.319V381.612L296.238 381.851V381.839ZM274.583 362.571L249.505 348.36C248.823 348.004 248.062 347.817 247.289 347.817C246.516 347.817 245.755 348.004 245.073 348.36C244.365 348.727 243.78 349.286 243.388 349.969C242.996 350.652 242.812 351.431 242.86 352.214V380.636C242.812 381.418 242.996 382.198 243.388 382.881C243.78 383.564 244.365 384.123 245.073 384.49C245.755 384.846 246.516 385.033 247.289 385.033C248.062 385.033 248.823 384.846 249.505 384.49L274.583 370.278C275.259 369.876 275.818 369.31 276.206 368.635C276.593 367.961 276.797 367.199 276.797 366.425C276.797 365.651 276.593 364.889 276.206 364.214C275.818 363.54 275.259 362.974 274.583 362.571Z" fill="url(#paint14_linear_86_1808)"/>
<path d="M274.839 362.142L274.839 362.142C275.588 362.587 276.208 363.215 276.639 363.965C277.07 364.716 277.297 365.563 277.297 366.425C277.297 367.287 277.07 368.134 276.639 368.884C276.208 369.635 275.588 370.262 274.839 370.708L274.83 370.714L274.83 370.713L249.752 384.925L249.744 384.929L249.737 384.933C248.983 385.327 248.143 385.533 247.289 385.533C246.436 385.533 245.595 385.327 244.842 384.933C244.842 384.933 244.841 384.933 244.841 384.933L245.073 384.49C244.365 384.123 243.78 383.564 243.388 382.881C242.996 382.198 242.812 381.418 242.86 380.636L274.839 362.142ZM274.839 362.142L274.83 362.136L249.752 347.925L249.744 347.921L249.737 347.917C248.983 347.523 248.143 347.317 247.289 347.317C246.436 347.317 245.596 347.523 244.843 347.916C244.051 348.327 243.395 348.952 242.954 349.72C242.516 350.483 242.31 351.353 242.36 352.229V380.621L274.839 362.142ZM296.238 381.743L295.773 381.655C292.143 390.817 285.352 398.45 276.575 403.232C267.797 408.014 257.586 409.642 247.71 407.833C237.834 406.025 228.917 400.893 222.502 393.331C216.087 385.769 212.577 376.251 212.577 366.425C212.577 356.599 216.087 347.081 222.502 339.519C228.917 331.956 237.834 326.825 247.71 325.017C257.586 323.208 267.797 324.836 276.575 329.618C285.352 334.4 292.143 342.033 295.773 351.195L295.898 351.511H296.238H335.855H336.355V351.011L336.355 324.301L336.355 324.297C336.324 320.083 334.6 316.052 331.559 313.076C328.518 310.1 324.405 308.417 320.109 308.387H320.106L190.917 308.387L190.914 308.387C186.618 308.417 182.505 310.1 179.464 313.076C176.423 316.052 174.699 320.083 174.668 324.297V324.301L174.668 408.365L174.668 408.369C174.699 412.583 176.423 416.613 179.464 419.59C182.505 422.566 186.618 424.249 190.914 424.279H190.917L320.112 424.279L320.116 424.279C324.411 424.249 328.525 422.566 331.565 419.59C334.607 416.613 336.331 412.583 336.361 408.369V408.365V396.102H366.853V409.327C366.83 421.13 362.029 432.445 353.499 440.794C344.968 449.143 333.403 453.845 321.334 453.867H190.178C178.11 453.845 166.544 449.143 158.013 440.794C149.483 432.445 144.682 421.13 144.659 409.328V323.319C144.682 311.517 149.483 300.203 158.013 291.854C166.544 283.505 178.109 278.802 190.178 278.78H321.341C333.409 278.802 344.975 283.505 353.505 291.854C362.036 300.203 366.836 311.517 366.859 323.32V381.113L296.236 381.351L296.238 381.743ZM382.128 394.35V336.596L422.469 310.981V421.845L382.128 394.35Z" stroke="url(#paint15_linear_86_1808)"/>
</g>
<defs>
<filter id="filter0_f_86_1808" x="167.159" y="0.279785" width="594.682" height="737.44" filterUnits="userSpaceOnUse" color-interpolation-filters="sRGB">
<feFlood flood-opacity="0" result="BackgroundImageFix"/>
<feBlend mode="normal" in="SourceGraphic" in2="BackgroundImageFix" result="shape"/>
<feGaussianBlur stdDeviation="128" result="effect1_foregroundBlur_86_1808"/>
</filter>
<filter id="filter1_f_86_1808" x="295.159" y="128.28" width="338.682" height="481.44" filterUnits="userSpaceOnUse" color-interpolation-filters="sRGB">
<feFlood flood-opacity="0" result="BackgroundImageFix"/>
<feBlend mode="normal" in="SourceGraphic" in2="BackgroundImageFix" result="shape"/>
<feGaussianBlur stdDeviation="64" result="effect1_foregroundBlur_86_1808"/>
</filter>
<filter id="filter2_b_86_1808" x="128.159" y="262.28" width="310.81" height="208.087" filterUnits="userSpaceOnUse" color-interpolation-filters="sRGB">
<feFlood flood-opacity="0" result="BackgroundImageFix"/>
<feGaussianBlur in="BackgroundImageFix" stdDeviation="8"/>
<feComposite in2="SourceAlpha" operator="in" result="effect1_backgroundBlur_86_1808"/>
<feBlend mode="normal" in="SourceGraphic" in2="effect1_backgroundBlur_86_1808" result="shape"/>
</filter>
<linearGradient id="paint0_linear_86_1808" x1="386.571" y1="299.711" x2="366.327" y2="321.888" gradientUnits="userSpaceOnUse">
<stop stop-color="#8721EE"/>
<stop offset="0.5" stop-color="#691DB5"/>
<stop offset="1" stop-color="#2B193E"/>
</linearGradient>
<linearGradient id="paint1_linear_86_1808" x1="322.786" y1="213.117" x2="311.651" y2="225.314" gradientUnits="userSpaceOnUse">
<stop stop-color="#8721EE"/>
<stop offset="0.5" stop-color="#691DB5"/>
<stop offset="1" stop-color="#2B193E"/>
</linearGradient>
<linearGradient id="paint2_linear_86_1808" x1="185.73" y1="520.468" x2="167.51" y2="540.427" gradientUnits="userSpaceOnUse">
<stop stop-color="#8721EE"/>
<stop offset="0.5" stop-color="#691DB5"/>
<stop offset="1" stop-color="#2B193E"/>
</linearGradient>
<linearGradient id="paint3_linear_86_1808" x1="215.73" y1="180.468" x2="197.51" y2="200.427" gradientUnits="userSpaceOnUse">
<stop stop-color="#8721EE"/>
<stop offset="0.5" stop-color="#691DB5"/>
<stop offset="1" stop-color="#2B193E"/>
</linearGradient>
<linearGradient id="paint4_linear_86_1808" x1="66.5715" y1="439.711" x2="46.3266" y2="461.888" gradientUnits="userSpaceOnUse">
<stop stop-color="#8721EE"/>
<stop offset="0.5" stop-color="#691DB5"/>
<stop offset="1" stop-color="#2B193E"/>
</linearGradient>
<linearGradient id="paint5_linear_86_1808" x1="104.118" y1="265.018" x2="80.7583" y2="290.606" gradientUnits="userSpaceOnUse">
<stop stop-color="#8721EE"/>
<stop offset="0.5" stop-color="#691DB5"/>
<stop offset="1" stop-color="#2B193E"/>
</linearGradient>
<linearGradient id="paint6_linear_86_1808" x1="234.887" y1="473.139" x2="211.527" y2="498.728" gradientUnits="userSpaceOnUse">
<stop stop-color="#8721EE"/>
<stop offset="0.5" stop-color="#691DB5"/>
<stop offset="1" stop-color="#2B193E"/>
</linearGradient>
<linearGradient id="paint7_linear_86_1808" x1="387.285" y1="346.699" x2="362.112" y2="374.274" gradientUnits="userSpaceOnUse">
<stop stop-color="#8721EE"/>
<stop offset="0.5" stop-color="#691DB5"/>
<stop offset="1" stop-color="#2B193E"/>
</linearGradient>
<linearGradient id="paint8_linear_86_1808" x1="424.138" y1="443.941" x2="396.656" y2="474.045" gradientUnits="userSpaceOnUse">
<stop stop-color="#8721EE"/>
<stop offset="0.5" stop-color="#691DB5"/>
<stop offset="1" stop-color="#2B193E"/>
</linearGradient>
<linearGradient id="paint9_linear_86_1808" x1="172.339" y1="327.471" x2="148.979" y2="353.059" gradientUnits="userSpaceOnUse">
<stop stop-color="#8721EE"/>
<stop offset="0.5" stop-color="#691DB5"/>
<stop offset="1" stop-color="#2B193E"/>
</linearGradient>
<linearGradient id="paint10_linear_86_1808" x1="60.3936" y1="369.401" x2="37.0341" y2="394.989" gradientUnits="userSpaceOnUse">
<stop stop-color="#8721EE"/>
<stop offset="0.5" stop-color="#691DB5"/>
<stop offset="1" stop-color="#2B193E"/>
</linearGradient>
<linearGradient id="paint11_linear_86_1808" x1="423.159" y1="357.78" x2="512.159" y2="357.78" gradientUnits="userSpaceOnUse">
<stop stop-color="#008DFF"/>
<stop offset="1" stop-color="#008DFF" stop-opacity="0"/>
</linearGradient>
<linearGradient id="paint12_linear_86_1808" x1="423.159" y1="357.78" x2="512.159" y2="357.78" gradientUnits="userSpaceOnUse">
<stop stop-color="#008DFF"/>
<stop offset="1" stop-color="#008DFF" stop-opacity="0"/>
</linearGradient>
<linearGradient id="paint13_linear_86_1808" x1="423.159" y1="357.78" x2="512.159" y2="357.78" gradientUnits="userSpaceOnUse">
<stop stop-color="#008DFF"/>
<stop offset="1" stop-color="#008DFF" stop-opacity="0"/>
</linearGradient>
<linearGradient id="paint14_linear_86_1808" x1="423.159" y1="366.28" x2="144.159" y2="366.28" gradientUnits="userSpaceOnUse">
<stop stop-color="#10ACFF"/>
<stop offset="1" stop-color="#7200FF" stop-opacity="0.12"/>
</linearGradient>
<linearGradient id="paint15_linear_86_1808" x1="423.159" y1="366.28" x2="144.159" y2="366.28" gradientUnits="userSpaceOnUse">
<stop stop-color="#008DFF"/>
<stop offset="1" stop-color="#008DFF" stop-opacity="0"/>
</linearGradient>
</defs>
</svg>
